# xmcd
#
# Track frame offsets:
#	150
#	14775
#	36187
#	51487
#	66600
#	87862
#	101775
#	112087
#	131962
#	144525
#	161437
#	183300
#	197437
#
# Disc length: 2816 seconds
#
# Revision: 1
# Processed by: cddbd v1.5PL3 Copyright (c) Steve Scherf et al.
# Submitted via: CDex 1.50Beta5
#
DISCID=c70afe0d
DTITLE=宮村優子 - 大四喜
DYEAR=1999
DGENRE=Pop
TTITLE0=ノストラちゃんまつり
TTITLE1=名探偵は人生を答えず
TTITLE2=福の神
TTITLE3=Ruktun or Die
TTITLE4=12才の旗
TTITLE5=大四喜
TTITLE6=けっせらせら
TTITLE7=秘密結社
TTITLE8=途中でねるな
TTITLE9=褌ファイター
TTITLE10=おめでたパンダ
TTITLE11=山道と観世音
TTITLE12=僕の体温は37.5℃
EXTD=
EXTT0=
EXTT1=
EXTT2=
EXTT3=
EXTT4=
EXTT5=
EXTT6=
EXTT7=
EXTT8=
EXTT9=
EXTT10=
EXTT11=
EXTT12=
PLAYORDER=
